<mxfile host="app.diagrams.net" modified="2020-11-19T08:28:29.483Z" agent="5.0 (Windows NT 10.0; Win64; x64) AppleWebKit/537.36 (KHTML, like Gecko) Chrome/86.0.4240.75 Safari/537.36" etag="HQCXPMPTA28C_adM5a-s" version="13.9.8" type="github">
  <diagram id="7PDH2nA5p43vlhweOSwX" name="Page-1">
    <mxGraphModel dx="1944" dy="1839" grid="1" gridSize="10" guides="1" tooltips="1" connect="1" arrows="1" fold="1" page="1" pageScale="1" pageWidth="827" pageHeight="1169" math="0" shadow="0">
      <root>
        <mxCell id="0" />
        <mxCell id="1" parent="0" />
        <mxCell id="hXeh_IW3n1D0ChG3olpG-42" value="" style="rounded=0;whiteSpace=wrap;html=1;align=left;fillColor=#f5f5f5;strokeColor=#666666;fontColor=#333333;" vertex="1" parent="1">
          <mxGeometry x="180" y="600" width="420" height="190" as="geometry" />
        </mxCell>
        <mxCell id="hXeh_IW3n1D0ChG3olpG-1" value="" style="rounded=0;whiteSpace=wrap;html=1;align=left;fillColor=#fff2cc;strokeColor=#d6b656;" vertex="1" parent="1">
          <mxGeometry x="396" y="682" width="170" height="95" as="geometry" />
        </mxCell>
        <mxCell id="hXeh_IW3n1D0ChG3olpG-2" value="" style="rounded=0;whiteSpace=wrap;html=1;align=left;fillColor=#fff2cc;strokeColor=#d6b656;" vertex="1" parent="1">
          <mxGeometry x="210" y="685" width="170" height="70" as="geometry" />
        </mxCell>
        <mxCell id="hXeh_IW3n1D0ChG3olpG-3" value="" style="rounded=0;whiteSpace=wrap;html=1;fillColor=#fff2cc;strokeColor=#d6b656;" vertex="1" parent="1">
          <mxGeometry x="80" y="350" width="820" height="150" as="geometry" />
        </mxCell>
        <mxCell id="hXeh_IW3n1D0ChG3olpG-4" value="" style="rounded=0;whiteSpace=wrap;html=1;fillColor=#fff2cc;strokeColor=#d6b656;" vertex="1" parent="1">
          <mxGeometry x="80" y="120" width="580" height="100" as="geometry" />
        </mxCell>
        <mxCell id="hXeh_IW3n1D0ChG3olpG-5" value="&lt;font size=&quot;1&quot;&gt;&lt;b style=&quot;font-size: 44px&quot;&gt;一卡通清算（票卡大类：20、21、22）：&lt;/b&gt;&lt;/font&gt;" style="text;html=1;strokeColor=none;fillColor=none;align=center;verticalAlign=middle;whiteSpace=wrap;rounded=0;" vertex="1" parent="1">
          <mxGeometry x="-62" y="-130" width="889" height="100" as="geometry" />
        </mxCell>
        <mxCell id="hXeh_IW3n1D0ChG3olpG-6" value="&lt;font style=&quot;font-size: 18px&quot;&gt;&lt;b&gt;正常交易：&lt;/b&gt;&lt;/font&gt;" style="text;html=1;strokeColor=none;fillColor=none;align=center;verticalAlign=middle;whiteSpace=wrap;rounded=0;" vertex="1" parent="1">
          <mxGeometry x="70" y="30" width="140" height="20" as="geometry" />
        </mxCell>
        <mxCell id="hXeh_IW3n1D0ChG3olpG-7" value="&lt;font&gt;&lt;span style=&quot;font-size: 16px&quot;&gt;tykt_trans_detail_sett（按清算日分区）&lt;/span&gt;&lt;br&gt;&lt;font color=&quot;#ff6314&quot;&gt;&lt;b&gt;&lt;span style=&quot;font-size: 16px&quot;&gt;tykt_citizen_trans_detail_sett&lt;/span&gt;&lt;span style=&quot;font-size: 16px&quot;&gt;（按清算日分区）&lt;/span&gt;&lt;/b&gt;&lt;/font&gt;&lt;br&gt;&lt;/font&gt;" style="text;html=1;strokeColor=none;fillColor=none;align=left;verticalAlign=middle;whiteSpace=wrap;rounded=0;" vertex="1" parent="1">
          <mxGeometry x="189" y="10" width="450" height="60" as="geometry" />
        </mxCell>
        <mxCell id="hXeh_IW3n1D0ChG3olpG-8" value="" style="line;strokeWidth=2;html=1;" vertex="1" parent="1">
          <mxGeometry x="372" y="60" width="40" height="10" as="geometry" />
        </mxCell>
        <mxCell id="hXeh_IW3n1D0ChG3olpG-9" value="&lt;span style=&quot;font-size: 16px&quot;&gt;文件上传时间&lt;/span&gt;" style="text;html=1;strokeColor=none;fillColor=none;align=center;verticalAlign=middle;whiteSpace=wrap;rounded=0;" vertex="1" parent="1">
          <mxGeometry x="452" y="60" width="120" height="40" as="geometry" />
        </mxCell>
        <mxCell id="hXeh_IW3n1D0ChG3olpG-10" value="&lt;font style=&quot;font-size: 18px&quot;&gt;&lt;b&gt;统计：&lt;/b&gt;&lt;/font&gt;" style="text;html=1;strokeColor=none;fillColor=none;align=center;verticalAlign=middle;whiteSpace=wrap;rounded=0;" vertex="1" parent="1">
          <mxGeometry x="-30" y="30" width="140" height="20" as="geometry" />
        </mxCell>
        <mxCell id="hXeh_IW3n1D0ChG3olpG-11" value="&lt;font style=&quot;font-size: 16px&quot;&gt;索引表：tcl_fare_index&amp;nbsp; &amp;nbsp; &amp;nbsp; &amp;nbsp;tcl_fee_index&lt;/font&gt;" style="text;html=1;strokeColor=none;fillColor=none;align=center;verticalAlign=middle;whiteSpace=wrap;rounded=0;" vertex="1" parent="1">
          <mxGeometry x="180" y="180" width="300" height="40" as="geometry" />
        </mxCell>
        <mxCell id="hXeh_IW3n1D0ChG3olpG-12" value="&lt;span style=&quot;font-size: 16px&quot;&gt;按交易类型、票卡大、小类、支付方式匹配&amp;nbsp;&lt;/span&gt;" style="text;html=1;strokeColor=none;fillColor=none;align=center;verticalAlign=middle;whiteSpace=wrap;rounded=0;" vertex="1" parent="1">
          <mxGeometry x="112" y="130" width="460" height="40" as="geometry" />
        </mxCell>
        <mxCell id="hXeh_IW3n1D0ChG3olpG-13" value="&lt;span style=&quot;font-size: 16px&quot;&gt;record_id字段&lt;/span&gt;" style="text;html=1;strokeColor=#6c8ebf;fillColor=#dae8fc;align=center;verticalAlign=middle;whiteSpace=wrap;rounded=0;" vertex="1" parent="1">
          <mxGeometry x="510" y="130" width="120" height="40" as="geometry" />
        </mxCell>
        <mxCell id="hXeh_IW3n1D0ChG3olpG-14" value="&lt;font style=&quot;font-size: 18px&quot;&gt;&lt;b&gt;清分：&lt;/b&gt;&lt;/font&gt;" style="text;html=1;strokeColor=none;fillColor=none;align=center;verticalAlign=middle;whiteSpace=wrap;rounded=0;" vertex="1" parent="1">
          <mxGeometry x="-30" y="290" width="140" height="20" as="geometry" />
        </mxCell>
        <mxCell id="hXeh_IW3n1D0ChG3olpG-15" value="&lt;font style=&quot;font-size: 16px&quot;&gt;tcl_ykt_valid_fare_sta&amp;nbsp; &amp;nbsp; &amp;nbsp; &amp;nbsp; &amp;nbsp;&amp;nbsp;tcl_ykt_valid_fee_sta&lt;br&gt;（出站交易）&amp;nbsp; &amp;nbsp; &amp;nbsp; &amp;nbsp; &amp;nbsp; &amp;nbsp; &amp;nbsp; &amp;nbsp; &amp;nbsp; &amp;nbsp; &amp;nbsp; &amp;nbsp; &amp;nbsp;（所有交易）&lt;br&gt;&lt;/font&gt;" style="text;html=1;strokeColor=none;fillColor=none;align=center;verticalAlign=middle;whiteSpace=wrap;rounded=0;" vertex="1" parent="1">
          <mxGeometry x="150" y="270" width="450" height="40" as="geometry" />
        </mxCell>
        <mxCell id="hXeh_IW3n1D0ChG3olpG-16" value="&lt;span style=&quot;font-size: 18px&quot;&gt;&lt;b&gt;统计结果表：&lt;/b&gt;&lt;/span&gt;" style="text;html=1;strokeColor=none;fillColor=none;align=center;verticalAlign=middle;whiteSpace=wrap;rounded=0;" vertex="1" parent="1">
          <mxGeometry x="70" y="280" width="140" height="20" as="geometry" />
        </mxCell>
        <mxCell id="hXeh_IW3n1D0ChG3olpG-17" value="&lt;font style=&quot;font-size: 17px&quot;&gt;&lt;span&gt;清分规则版本：tcr_rules_version&lt;br&gt;&lt;/span&gt;清分类别：tcr_rules_type&lt;br&gt;&lt;span&gt;清分规则表：tcr_rules_item&lt;/span&gt;&lt;br&gt;&lt;span&gt;分级比例表：tcr_rules_grade（票务服务费fee使用）&lt;/span&gt;&lt;/font&gt;" style="text;html=1;strokeColor=none;fillColor=none;align=left;verticalAlign=middle;whiteSpace=wrap;rounded=0;" vertex="1" parent="1">
          <mxGeometry x="117" y="370" width="450" height="90" as="geometry" />
        </mxCell>
        <mxCell id="hXeh_IW3n1D0ChG3olpG-18" value="&lt;font style=&quot;font-size: 16px&quot;&gt;clearType=1 乘车消费（出站交易）&lt;/font&gt;" style="text;html=1;strokeColor=none;fillColor=none;align=center;verticalAlign=middle;whiteSpace=wrap;rounded=0;" vertex="1" parent="1">
          <mxGeometry x="240" y="530" width="260" height="40" as="geometry" />
        </mxCell>
        <mxCell id="hXeh_IW3n1D0ChG3olpG-19" value="&lt;font style=&quot;font-size: 16px&quot;&gt;clearType=2 ACC清分服务费&lt;br&gt;&lt;br&gt;clearType=3 票务服务费（所有交易类型）&lt;br&gt;&lt;br&gt;clearType=4 一卡通清分服务费&lt;br&gt;&lt;/font&gt;" style="text;html=1;strokeColor=#d6b656;fillColor=#fff2cc;align=left;verticalAlign=middle;whiteSpace=wrap;rounded=0;" vertex="1" parent="1">
          <mxGeometry x="630" y="550" width="320" height="140" as="geometry" />
        </mxCell>
        <mxCell id="hXeh_IW3n1D0ChG3olpG-20" value="&lt;font style=&quot;font-size: 16px&quot;&gt;分票卡大、小类、进出站号&lt;/font&gt;" style="text;html=1;strokeColor=none;fillColor=none;align=center;verticalAlign=middle;whiteSpace=wrap;rounded=0;" vertex="1" parent="1">
          <mxGeometry x="230" y="630" width="260" height="40" as="geometry" />
        </mxCell>
        <mxCell id="hXeh_IW3n1D0ChG3olpG-21" value="&lt;font style=&quot;font-size: 14px&quot;&gt;清分比例OD路段表：tcr_section_allot&lt;/font&gt;" style="text;whiteSpace=wrap;html=1;" vertex="1" parent="1">
          <mxGeometry x="233" y="700" width="140" height="60" as="geometry" />
        </mxCell>
        <mxCell id="hXeh_IW3n1D0ChG3olpG-22" value="&lt;font&gt;&lt;span style=&quot;font-size: 14px&quot;&gt;清分比例OD收益方表：tcr_trafficker_allot_od&lt;/span&gt;&lt;br&gt;&lt;br&gt;&lt;span style=&quot;font-size: 14px&quot;&gt;收益方清分比例表：&lt;/span&gt;&lt;span style=&quot;font-size: 14px&quot;&gt;tcr_trafficker_allot&amp;nbsp;&amp;nbsp;&lt;/span&gt;&lt;br&gt;&lt;/font&gt;" style="text;whiteSpace=wrap;html=1;" vertex="1" parent="1">
          <mxGeometry x="412" y="680" width="160" height="100" as="geometry" />
        </mxCell>
        <mxCell id="hXeh_IW3n1D0ChG3olpG-23" value="&lt;font style=&quot;font-size: 14px&quot;&gt;票卡大小类、交易类型、calculate_element、calculate_way、fixed_rate字段&lt;/font&gt;" style="text;html=1;strokeColor=none;fillColor=none;align=center;verticalAlign=middle;whiteSpace=wrap;rounded=0;" vertex="1" parent="1">
          <mxGeometry x="320" y="415" width="500" height="20" as="geometry" />
        </mxCell>
        <mxCell id="hXeh_IW3n1D0ChG3olpG-24" value="&lt;font style=&quot;font-size: 14px&quot;&gt;票卡大小类、交易类型、min_value、max_value、&lt;span style=&quot;text-align: left&quot;&gt;rate字段&lt;/span&gt;&lt;/font&gt;" style="text;html=1;strokeColor=none;fillColor=none;align=center;verticalAlign=middle;whiteSpace=wrap;rounded=0;" vertex="1" parent="1">
          <mxGeometry x="510" y="435" width="380" height="20" as="geometry" />
        </mxCell>
        <mxCell id="hXeh_IW3n1D0ChG3olpG-25" value="&lt;span style=&quot;font-size: 18px&quot;&gt;&lt;b&gt;清分结果表：&lt;/b&gt;&lt;/span&gt;" style="text;html=1;strokeColor=none;fillColor=none;align=center;verticalAlign=middle;whiteSpace=wrap;rounded=0;" vertex="1" parent="1">
          <mxGeometry x="80" y="830" width="140" height="20" as="geometry" />
        </mxCell>
        <mxCell id="hXeh_IW3n1D0ChG3olpG-26" value="&lt;font style=&quot;font-size: 16px&quot;&gt;tcl_ykt_valid_fare_section_cl&amp;nbsp; &amp;nbsp;tcl_ykt_valid_fare_traff_cl&amp;nbsp; &amp;nbsp; &amp;nbsp; &amp;nbsp; &amp;nbsp; &amp;nbsp; tcl_ykt_valid_fee_cl&lt;/font&gt;" style="text;html=1;strokeColor=none;fillColor=none;align=left;verticalAlign=middle;whiteSpace=wrap;rounded=0;" vertex="1" parent="1">
          <mxGeometry x="200" y="820" width="715" height="40" as="geometry" />
        </mxCell>
        <mxCell id="hXeh_IW3n1D0ChG3olpG-27" value="" style="endArrow=classic;html=1;entryX=1;entryY=0.5;entryDx=0;entryDy=0;entryPerimeter=0;" edge="1" parent="1" source="hXeh_IW3n1D0ChG3olpG-9" target="hXeh_IW3n1D0ChG3olpG-8">
          <mxGeometry width="50" height="50" relative="1" as="geometry">
            <mxPoint x="265" y="260" as="sourcePoint" />
            <mxPoint x="400" y="40" as="targetPoint" />
          </mxGeometry>
        </mxCell>
        <mxCell id="hXeh_IW3n1D0ChG3olpG-28" value="" style="shape=flexArrow;endArrow=classic;html=1;entryX=0.381;entryY=0;entryDx=0;entryDy=0;entryPerimeter=0;fillColor=#fff2cc;strokeColor=#d6b656;gradientColor=#ffd966;" edge="1" parent="1" target="hXeh_IW3n1D0ChG3olpG-4">
          <mxGeometry width="50" height="50" relative="1" as="geometry">
            <mxPoint x="301" y="70" as="sourcePoint" />
            <mxPoint x="310" y="90" as="targetPoint" />
          </mxGeometry>
        </mxCell>
        <mxCell id="hXeh_IW3n1D0ChG3olpG-29" value="" style="shape=flexArrow;endArrow=classic;html=1;exitX=0.425;exitY=1.095;exitDx=0;exitDy=0;exitPerimeter=0;entryX=0.25;entryY=0;entryDx=0;entryDy=0;gradientColor=#ffd966;fillColor=#fff2cc;strokeColor=#d6b656;" edge="1" parent="1" source="hXeh_IW3n1D0ChG3olpG-11" target="hXeh_IW3n1D0ChG3olpG-15">
          <mxGeometry width="50" height="50" relative="1" as="geometry">
            <mxPoint x="-110" y="290" as="sourcePoint" />
            <mxPoint x="-60" y="240" as="targetPoint" />
          </mxGeometry>
        </mxCell>
        <mxCell id="hXeh_IW3n1D0ChG3olpG-30" value="" style="shape=flexArrow;endArrow=classic;html=1;exitX=0.85;exitY=1.024;exitDx=0;exitDy=0;exitPerimeter=0;gradientColor=#ffd966;fillColor=#fff2cc;strokeColor=#d6b656;" edge="1" parent="1" source="hXeh_IW3n1D0ChG3olpG-11">
          <mxGeometry width="50" height="50" relative="1" as="geometry">
            <mxPoint x="260" y="280" as="sourcePoint" />
            <mxPoint x="480" y="270" as="targetPoint" />
          </mxGeometry>
        </mxCell>
        <mxCell id="hXeh_IW3n1D0ChG3olpG-31" value="" style="shape=flexArrow;endArrow=classic;html=1;exitX=0.784;exitY=1;exitDx=0;exitDy=0;exitPerimeter=0;gradientColor=#ffd966;fillColor=#fff2cc;strokeColor=#d6b656;entryX=0.5;entryY=0;entryDx=0;entryDy=0;" edge="1" parent="1" source="hXeh_IW3n1D0ChG3olpG-17" target="hXeh_IW3n1D0ChG3olpG-19">
          <mxGeometry width="50" height="50" relative="1" as="geometry">
            <mxPoint x="270" y="510" as="sourcePoint" />
            <mxPoint x="320" y="460" as="targetPoint" />
          </mxGeometry>
        </mxCell>
        <mxCell id="hXeh_IW3n1D0ChG3olpG-32" value="" style="edgeStyle=segmentEdgeStyle;endArrow=classic;html=1;entryX=0;entryY=0.5;entryDx=0;entryDy=0;" edge="1" parent="1" target="hXeh_IW3n1D0ChG3olpG-18">
          <mxGeometry width="50" height="50" relative="1" as="geometry">
            <mxPoint x="120" y="430" as="sourcePoint" />
            <mxPoint x="320" y="460" as="targetPoint" />
            <Array as="points">
              <mxPoint x="117" y="420" />
              <mxPoint x="-50" y="420" />
              <mxPoint x="-50" y="570" />
            </Array>
          </mxGeometry>
        </mxCell>
        <mxCell id="hXeh_IW3n1D0ChG3olpG-33" value="" style="shape=flexArrow;endArrow=classic;html=1;entryX=0.14;entryY=-0.06;entryDx=0;entryDy=0;entryPerimeter=0;gradientColor=#ffd966;fillColor=#fff2cc;strokeColor=#d6b656;" edge="1" parent="1" target="hXeh_IW3n1D0ChG3olpG-26">
          <mxGeometry width="50" height="50" relative="1" as="geometry">
            <mxPoint x="300" y="760" as="sourcePoint" />
            <mxPoint x="360" y="530" as="targetPoint" />
          </mxGeometry>
        </mxCell>
        <mxCell id="hXeh_IW3n1D0ChG3olpG-34" value="" style="shape=flexArrow;endArrow=classic;html=1;entryX=0.43;entryY=0.036;entryDx=0;entryDy=0;entryPerimeter=0;gradientColor=#ffd966;fillColor=#fff2cc;strokeColor=#d6b656;" edge="1" parent="1" target="hXeh_IW3n1D0ChG3olpG-26">
          <mxGeometry width="50" height="50" relative="1" as="geometry">
            <mxPoint x="507" y="780" as="sourcePoint" />
            <mxPoint x="360" y="530" as="targetPoint" />
          </mxGeometry>
        </mxCell>
        <mxCell id="hXeh_IW3n1D0ChG3olpG-35" value="" style="shape=flexArrow;endArrow=classic;html=1;entryX=0.75;entryY=0;entryDx=0;entryDy=0;gradientColor=#ffd966;fillColor=#fff2cc;strokeColor=#d6b656;" edge="1" parent="1" target="hXeh_IW3n1D0ChG3olpG-26">
          <mxGeometry width="50" height="50" relative="1" as="geometry">
            <mxPoint x="736" y="693" as="sourcePoint" />
            <mxPoint x="360" y="680" as="targetPoint" />
          </mxGeometry>
        </mxCell>
        <mxCell id="hXeh_IW3n1D0ChG3olpG-36" value="" style="shape=flexArrow;endArrow=classic;html=1;exitX=0.5;exitY=1;exitDx=0;exitDy=0;gradientColor=#ffd966;fillColor=#fff2cc;strokeColor=#d6b656;" edge="1" parent="1" source="hXeh_IW3n1D0ChG3olpG-18">
          <mxGeometry width="50" height="50" relative="1" as="geometry">
            <mxPoint x="480" y="540" as="sourcePoint" />
            <mxPoint x="370" y="600" as="targetPoint" />
          </mxGeometry>
        </mxCell>
        <mxCell id="hXeh_IW3n1D0ChG3olpG-37" value="" style="rounded=1;whiteSpace=wrap;html=1;fillColor=#fff2cc;align=left;gradientColor=#ffd966;strokeColor=#d6b656;" vertex="1" parent="1">
          <mxGeometry x="1140" y="460" width="120" height="60" as="geometry" />
        </mxCell>
        <mxCell id="hXeh_IW3n1D0ChG3olpG-41" value="" style="strokeWidth=2;html=1;shape=mxgraph.flowchart.annotation_2;align=left;labelPosition=right;pointerEvents=1;rotation=-90;" vertex="1" parent="1">
          <mxGeometry x="350" y="235" width="50" height="190" as="geometry" />
        </mxCell>
      </root>
    </mxGraphModel>
  </diagram>
</mxfile>
